<?xml version="1.0" encoding="iso-8859-1"?>
<!-- Modified to create a "next" icon with specified background and icon colors -->
<svg height="32px" width="32px" version="1.1" id="Layer_1" xmlns="http://www.w3.org/2000/svg" xmlns:xlink="http://www.w3.org/1999/xlink" 
	 viewBox="0 0 489.6 489.6" xml:space="preserve">
	<!-- Background rectangle -->
  	<circle cx="244.8" cy="244.8" r="244.8" fill="#00246b"/>
	<g>
		<g>
			<!-- Circle with color #cadcfc -->
			<path style="fill:#cadcfc;" d="M244.8,489.6c135,0,244.8-109.8,244.8-244.8S379.8,0,244.8,0S0,109.8,0,244.8
				S109.8,489.6,244.8,489.6z M244.8,19.8c124.1,0,225,100.9,225,225s-100.9,225-225,225s-225-100.9-225-225S120.7,19.8,244.8,19.8z"
			/>
			<!-- Arrow with color #cadcfc -->
			<path style="fill:#cadcfc;" d="M223.5,326.1c-1.9,1.9-4.5,2.9-7,2.9s-5.1-1-7-2.9c-3.9-3.9-3.9-10.1,0-14l67.3-67.3l-67.3-67.3
				c-3.9-3.9-3.9-10.1,0-14s10.1-3.9,14,0l74.3,74.3c3.9,3.9,3.9,10.1,0,14L223.5,326.1z"/>
		</g>
	</g>
</svg>
