<svg xmlns="http://www.w3.org/2000/svg" xmlns:xlink="http://www.w3.org/1999/xlink" viewBox="0 0 100 125" version="1.1" x="0px" y="0px"><title>9</title><desc>Created with Sketch.</desc><g stroke="none" stroke-width="1" fill="none" fill-rule="evenodd"><g fill="#000000"><path d="M82.7382066,82.1645224 C79.0132554,76.022807 73.1569201,70.3729045 67.1177388,67.0518519 C72.8615984,62.1621832 76.3532164,54.9163743 76.3532164,47.0159844 C76.3532164,32.5066277 64.5489279,20.7025341 50.0397661,20.7025341 C35.5304094,20.7025341 23.7265107,32.5066277 23.7265107,47.0159844 C23.7265107,54.9095517 27.2206628,62.1580897 32.9649123,67.0500975 C26.8730994,70.3994152 20.9676413,76.1187135 17.2473684,82.3224172 C8.63879142,73.6460039 3.89863548,62.145614 3.89863548,49.9155945 C3.89863548,37.6241715 8.68518519,26.0682261 17.3766082,17.3768031 C26.0680312,8.68538012 37.6239766,3.89863548 49.9157895,3.89863548 C62.2074074,3.89863548 73.7633528,8.68538012 82.4547758,17.3768031 C91.1461988,26.0682261 95.9327485,37.6241715 95.9327485,49.9155945 C95.9327485,62.0719298 91.248538,73.5066277 82.7382066,82.1645224 M20.1779727,85.0341131 C23.848538,78.5309942 30.2185185,72.520078 36.5368421,69.6062378 C37.1265107,69.9578947 37.7321637,70.2875244 38.3536062,70.5945419 C38.4068226,70.6210526 38.4602339,70.6477583 38.5138402,70.6738791 C38.6851852,70.7569201 38.8569201,70.8395712 39.0304094,70.9192982 C39.2325536,71.0126706 39.4362573,71.102924 39.6407407,71.1910331 C39.7467836,71.2362573 39.8532164,71.2810916 39.9598441,71.3251462 C40.1916179,71.4214425 40.4247563,71.51423 40.6592593,71.6037037 C40.7280702,71.6300195 40.797076,71.6563353 40.8664717,71.6820663 C41.1658869,71.7935673 41.4666667,71.9015595 41.7701754,72.0019493 C42.0904483,72.1079922 42.4183236,72.1265107 42.72846,72.0703704 C42.777193,72.0615984 42.8249513,72.0493177 42.8727096,72.037037 C42.8849903,72.0339181 42.8974659,72.0321637 42.9095517,72.028655 C43.5130604,71.8594542 44.0243665,71.4031189 44.2358674,70.7633528 C44.5740741,69.7411306 44.0192982,68.6384016 42.997271,68.3005848 C42.7300195,68.2122807 42.4658869,68.1181287 42.2038986,68.0204678 C42.1278752,67.9922027 42.0524366,67.9621832 41.9768031,67.9327485 C41.8077973,67.8678363 41.6403509,67.8009747 41.4736842,67.7325536 C41.3500975,67.6810916 41.2269006,67.6290448 41.1038986,67.5754386 C41.002729,67.5317739 40.9025341,67.4863548 40.8021442,67.4411306 C40.6368421,67.3660819 40.4711501,67.2908382 40.3074074,67.2118908 C40.302729,67.2095517 40.2978558,67.2072125 40.2929825,67.2046784 C39.4241715,66.7842105 38.5814815,66.3070175 37.7709552,65.7760234 C37.7473684,65.7606238 37.7222222,65.7487329 37.6980507,65.734308 C31.5091618,61.6612086 27.6251462,54.6974659 27.6251462,47.0159844 C27.6251462,34.6563353 37.6803119,24.6011696 50.0397661,24.6011696 C62.3992203,24.6011696 72.4545809,34.6563353 72.4545809,47.0159844 C72.4545809,54.694347 68.5832359,61.6460039 62.4077973,65.7194932 C62.3746589,65.7382066 62.3407407,65.7549708 62.308577,65.7760234 C61.319883,66.4239766 60.2826511,66.9898635 59.2087719,67.4723197 C59.1191033,67.5122807 59.0294347,67.5524366 58.9389864,67.5912281 C58.8062378,67.6487329 58.6729045,67.7048733 58.5389864,67.7598441 C58.3785575,67.8253411 58.2169591,67.8892788 58.054191,67.9512671 C57.9721248,67.9826511 57.8902534,68.0152047 57.8077973,68.045614 C57.5452242,68.1424951 57.2805068,68.2358674 57.0126706,68.3233918 C55.9894737,68.6580897 55.4311891,69.7588694 55.7658869,70.7820663 C55.7851852,70.8415205 55.8079922,70.8988304 55.8323587,70.9549708 C55.8395712,70.9711501 55.8473684,70.9867446 55.8547758,71.002729 C55.8730994,71.0417154 55.8920078,71.079922 55.9126706,71.117154 C55.9226121,71.1352827 55.9325536,71.1532164 55.9430799,71.1709552 C55.9639376,71.205848 55.98577,71.2397661 56.008577,71.2732943 C56.0194932,71.2892788 56.0298246,71.3054581 56.0413255,71.3210526 C56.071345,71.362768 56.102924,71.402924 56.1360624,71.4417154 C56.1421053,71.4483431 56.1475634,71.4555556 56.1532164,71.4621832 C56.1894737,71.5033138 56.2274854,71.5424951 56.2666667,71.580117 C56.2818713,71.5949318 56.2982456,71.6089669 56.3140351,71.6231969 C56.3409357,71.6471735 56.3680312,71.6707602 56.3957115,71.6931774 C56.414425,71.7081871 56.4335283,71.722807 56.4524366,71.737037 C56.479922,71.7575049 56.5077973,71.7769981 56.5362573,71.7959064 C56.5557505,71.8089669 56.5750487,71.8222222 56.5953216,71.8346979 C56.628655,71.8551657 56.662963,71.874269 56.6974659,71.8927875 C56.7191033,71.9042885 56.7407407,71.9159844 56.762768,71.9267057 C56.8046784,71.9473684 56.8471735,71.9666667 56.8902534,71.9840156 C56.9136452,71.9933723 56.937232,72.0011696 56.9608187,72.0097466 C56.9904483,72.0204678 57.0202729,72.0309942 57.0506823,72.0401559 C57.0762183,72.0481481 57.1021442,72.0553606 57.1282651,72.0619883 C57.1575049,72.0697856 57.1873294,72.0764133 57.217154,72.0826511 C57.2436647,72.088499 57.2699805,72.094152 57.2964912,72.0984405 C57.328655,72.1040936 57.3610136,72.1076023 57.3935673,72.111501 C57.4300195,72.1157895 57.4664717,72.1192982 57.5033138,72.1214425 C57.5415205,72.1237817 57.579922,72.1261209 57.6183236,72.1261209 C57.6208577,72.1261209 57.6233918,72.125731 57.6261209,72.125731 C57.6536062,72.125731 57.6812865,72.1237817 57.7089669,72.1224172 C57.7385965,72.1212476 57.7682261,72.1196881 57.7980507,72.1167641 C57.8274854,72.1140351 57.8569201,72.1105263 57.8865497,72.1062378 C57.9148148,72.1023392 57.9430799,72.097271 57.971345,72.0922027 C58.0013645,72.0867446 58.0309942,72.0812865 58.0606238,72.074269 C58.0920078,72.0670565 58.1233918,72.0576998 58.1545809,72.0487329 C58.1781676,72.0421053 58.2019493,72.0374269 58.2253411,72.0296296 C58.5274854,71.9307992 58.8269006,71.8243665 59.1249513,71.7146199 C59.2044834,71.6853801 59.2836257,71.6555556 59.362768,71.6255361 C59.5769981,71.5444444 59.7898635,71.460039 60.0019493,71.3732943 C60.1596491,71.3091618 60.3161793,71.242885 60.4719298,71.1758285 C60.6403509,71.102924 60.808577,71.0300195 60.9752437,70.9534113 C61.1750487,70.8625731 61.3725146,70.7680312 61.5692008,70.6725146 C61.5949318,70.6598441 61.6208577,70.6473684 61.6463938,70.6346979 C62.2961014,70.3165692 62.9288499,69.9736842 63.5440546,69.6070175 C69.8161793,72.5 76.1393762,78.4440546 79.8218324,84.8922027 C71.4935673,92.0360624 61.0044834,95.9329435 49.9157895,95.9329435 C38.9011696,95.9329435 28.4789474,92.0865497 20.1779727,85.0341131 M85.211501,14.619883 C75.7836257,5.19220273 63.2489279,0 49.9157895,0 C36.582846,0 24.0477583,5.19220273 14.619883,14.619883 C5.1920078,24.0477583 0,36.5826511 0,49.9155945 C0,63.2487329 5.1920078,75.7838207 14.619883,85.2116959 C24.0477583,94.6393762 36.582846,99.8315789 49.9157895,99.8315789 C63.2489279,99.8315789 75.7836257,94.6393762 85.211501,85.2116959 C94.6393762,75.7838207 99.831384,63.2487329 99.831384,49.9155945 C99.831384,36.5826511 94.6393762,24.0477583 85.211501,14.619883"/></g></g></svg>